<svg width="269" height="622" viewBox="0 0 269 622" fill="none" xmlns="http://www.w3.org/2000/svg">
<path opacity="0.2" d="M56.2709 287.713C56.3007 287.531 56.4718 287.409 56.6531 287.438C56.8344 287.468 56.9572 287.639 56.9274 287.821L56.2709 287.713ZM371.654 576.391C370.877 574.463 370.092 572.563 369.3 570.689L369.913 570.43C370.706 572.307 371.492 574.211 372.271 576.142L371.654 576.391ZM364.467 559.767C362.781 556.129 361.067 552.602 359.327 549.181L359.92 548.88C361.664 552.307 363.382 555.842 365.07 559.487L364.467 559.767ZM353.667 538.597C351.7 535.096 349.702 531.72 347.676 528.463L348.241 528.112C350.272 531.377 352.275 534.762 354.247 538.271L353.667 538.597ZM341.112 518.465C338.808 515.141 336.471 511.957 334.105 508.906L334.63 508.499C337.004 511.559 339.348 514.752 341.659 518.086L341.112 518.465ZM326.587 499.773C323.905 496.705 321.189 493.791 318.443 491.025L318.915 490.557C321.671 493.333 324.397 496.256 327.088 499.336L326.587 499.773ZM309.868 482.944C306.829 480.267 303.758 477.754 300.66 475.393L301.063 474.864C304.174 477.234 307.257 479.758 310.308 482.445L309.868 482.944ZM290.937 468.531C287.579 466.342 284.195 464.314 280.789 462.434L281.111 461.852C284.531 463.739 287.929 465.776 291.3 467.974L290.937 468.531ZM270.218 457.092C266.571 455.412 262.906 453.884 259.228 452.493L259.463 451.871C263.155 453.267 266.835 454.801 270.496 456.488L270.218 457.092ZM247.979 448.662C244.164 447.499 240.343 446.466 236.52 445.548L236.676 444.901C240.51 445.822 244.345 446.858 248.173 448.025L247.979 448.662ZM224.906 443.089C220.983 442.364 217.066 441.743 213.162 441.207L213.252 440.548C217.165 441.085 221.092 441.708 225.027 442.434L224.906 443.089ZM201.335 439.822C197.355 439.43 193.398 439.11 189.469 438.842L189.515 438.178C193.449 438.447 197.413 438.767 201.4 439.16L201.335 439.822ZM177.585 438.167C173.578 437.979 169.613 437.826 165.695 437.687L165.719 437.022C169.637 437.161 173.606 437.314 177.616 437.502L177.585 438.167ZM153.808 437.28C149.779 437.14 145.814 436.99 141.924 436.806L141.955 436.142C145.841 436.326 149.803 436.475 153.831 436.616L153.808 437.28ZM130.038 436.092C125.977 435.783 122.017 435.402 118.172 434.916L118.255 434.256C122.087 434.74 126.036 435.12 130.088 435.429L130.038 436.092ZM106.393 432.984C102.373 432.148 98.5137 431.136 94.8338 429.901L95.0455 429.27C98.6965 430.496 102.53 431.501 106.528 432.332L106.393 432.984ZM83.8416 425.21C80.3088 423.319 77.0077 421.112 73.9629 418.531L74.3931 418.024C77.3993 420.572 80.6609 422.752 84.1556 424.623L83.8416 425.21ZM65.7956 409.843C63.5133 406.795 61.4623 403.395 59.6594 399.603L60.2603 399.318C62.0452 403.072 64.0737 406.433 66.3282 409.444L65.7956 409.843ZM55.4355 388.474C54.3728 384.9 53.4742 381.058 52.7479 376.926L53.4031 376.811C54.1255 380.92 55.0185 384.737 56.0732 388.284L55.4355 388.474ZM51.2171 365.123C50.8798 361.3 50.663 357.269 50.5714 353.021L51.2366 353.006C51.3279 357.241 51.544 361.257 51.8798 365.064L51.2171 365.123ZM50.6229 341.302C50.7312 337.49 50.9265 333.524 51.2115 329.397L51.8753 329.443C51.5909 333.562 51.396 337.519 51.288 341.321L50.6229 341.302ZM52.2406 317.469C52.6285 313.681 53.0836 309.772 53.6076 305.737L54.2674 305.822C53.7442 309.852 53.2897 313.755 52.9024 317.537L52.2406 317.469ZM55.2883 293.895C55.5999 291.864 55.9274 289.803 56.2709 287.713L56.9274 287.821C56.5843 289.909 56.2572 291.967 55.9459 293.996L55.2883 293.895ZM55.9426 287.659C56.0022 287.296 56.3445 287.051 56.7071 287.11C57.0697 287.17 57.3153 287.512 57.2557 287.875L55.9426 287.659ZM371.346 576.516C370.569 574.59 369.785 572.691 368.994 570.819L370.219 570.301C371.013 572.18 371.8 574.085 372.58 576.018L371.346 576.516ZM364.165 559.907C362.481 556.273 360.769 552.749 359.03 549.332L360.216 548.729C361.963 552.16 363.682 555.699 365.372 559.347L364.165 559.907ZM353.377 538.76C351.412 535.264 349.417 531.892 347.393 528.639L348.523 527.936C350.558 531.206 352.563 534.595 354.537 538.108L353.377 538.76ZM340.839 518.654C338.538 515.335 336.205 512.156 333.842 509.11L334.893 508.295C337.271 511.359 339.618 514.558 341.932 517.896L340.839 518.654ZM326.337 499.992C323.659 496.929 320.948 494.021 318.207 491.26L319.151 490.322C321.912 493.103 324.643 496.032 327.339 499.117L326.337 499.992ZM309.648 483.194C306.615 480.522 303.55 478.014 300.458 475.658L301.264 474.6C304.382 476.975 307.471 479.503 310.528 482.195L309.648 483.194ZM290.755 468.81C287.404 466.625 284.027 464.601 280.629 462.726L281.272 461.56C284.699 463.452 288.104 465.493 291.482 467.695L290.755 468.81ZM270.079 457.395C266.439 455.718 262.781 454.193 259.11 452.804L259.581 451.56C263.28 452.958 266.967 454.496 270.635 456.186L270.079 457.395ZM247.882 448.98C244.074 447.819 240.259 446.788 236.443 445.871L236.754 444.577C240.594 445.5 244.435 446.538 248.27 447.707L247.882 448.98ZM224.846 443.416C220.928 442.693 217.016 442.072 213.116 441.537L213.297 440.218C217.215 440.756 221.147 441.38 225.087 442.107L224.846 443.416ZM201.302 440.153C197.327 439.762 193.372 439.442 189.447 439.174L189.537 437.846C193.474 438.115 197.442 438.436 201.433 438.829L201.302 440.153ZM177.569 438.499C173.565 438.311 169.6 438.158 165.683 438.019L165.73 436.69C169.65 436.829 173.62 436.982 177.632 437.17L177.569 438.499ZM153.796 437.613C149.767 437.472 145.8 437.323 141.908 437.139L141.971 435.809C145.855 435.993 149.815 436.143 153.842 436.283L153.796 437.613ZM130.012 436.424C125.947 436.115 121.982 435.733 118.13 435.246L118.297 433.926C122.122 434.41 126.065 434.789 130.113 435.097L130.012 436.424ZM106.325 433.309C102.295 432.471 98.4223 431.456 94.728 430.216L95.1514 428.955C98.7879 430.175 102.608 431.178 106.596 432.006L106.325 433.309ZM83.6846 425.503C80.1327 423.602 76.8119 421.382 73.7478 418.785L74.6082 417.77C77.5952 420.301 80.837 422.469 84.3126 424.33L83.6846 425.503ZM65.5293 410.042C63.2331 406.975 61.1708 403.557 59.359 399.746L60.5608 399.175C62.3367 402.91 64.3539 406.252 66.5945 409.245L65.5293 410.042ZM55.1166 388.569C54.05 384.981 53.1486 381.127 52.4202 376.984L53.7308 376.754C54.4512 380.851 55.3413 384.655 56.3921 388.19L55.1166 388.569ZM50.8857 365.152C50.5477 361.321 50.3306 357.283 50.2388 353.028L51.5692 352.999C51.6604 357.228 51.876 361.236 52.2112 365.035L50.8857 365.152ZM50.2903 341.293C50.3988 337.476 50.5944 333.505 50.8797 329.374L52.2072 329.466C51.923 333.58 51.7284 337.533 51.6205 341.331L50.2903 341.293ZM51.9096 317.435C52.2979 313.644 52.7534 309.732 53.2777 305.694L54.5973 305.865C54.0744 309.892 53.6203 313.792 53.2334 317.571L51.9096 317.435ZM54.9594 293.845C55.2712 291.812 55.5989 289.75 55.9426 287.659L57.2557 287.875C56.9127 289.962 56.5858 292.019 56.2747 294.047L54.9594 293.845Z" fill="white"/>
<circle opacity="0.08" cx="205.5" cy="254.5" r="4.5" fill="white"/>
<circle opacity="0.08" cx="19" cy="3" r="3" fill="white"/>
<g opacity="0.3">
<path d="M174.596 45.2491C177.355 46.1421 180.315 44.6298 181.208 41.8712C182.101 39.1127 180.588 36.1525 177.83 35.2595C175.071 34.3665 172.111 35.8788 171.218 38.6374C170.325 41.3959 171.837 44.3561 174.596 45.2491Z" stroke="white" stroke-linecap="round" stroke-linejoin="round"/>
<path d="M188.699 44.2962C185.061 55.5345 169.745 60.2331 169.745 60.2331C169.745 60.2331 160.087 47.4499 163.725 36.2116C164.797 32.8999 167.141 30.1496 170.241 28.5659C173.341 26.9822 176.943 26.6948 180.255 27.7669C183.566 28.839 186.317 31.1827 187.9 34.2826C189.484 37.3824 189.771 40.9844 188.699 44.2962V44.2962Z" stroke="white" stroke-linecap="round" stroke-linejoin="round"/>
</g>
</svg>
