<svg width="360" height="720" viewBox="0 0 360 720" fill="none" xmlns="http://www.w3.org/2000/svg">
<path opacity="0.2" d="M309.663 542.395C309.679 542.299 309.77 542.233 309.867 542.249C309.963 542.265 310.028 542.356 310.013 542.453L309.663 542.395ZM477.542 696.059C477.128 695.033 476.71 694.021 476.289 693.024L476.615 692.886C477.037 693.885 477.456 694.899 477.87 695.926L477.542 696.059ZM473.716 687.21C472.819 685.273 471.906 683.396 470.98 681.575L471.296 681.414C472.224 683.239 473.138 685.121 474.037 687.061L473.716 687.21ZM467.967 675.941C466.92 674.078 465.857 672.28 464.778 670.547L465.079 670.36C466.16 672.098 467.226 673.9 468.276 675.767L467.967 675.941ZM461.284 665.225C460.058 663.455 458.814 661.76 457.554 660.137L457.834 659.92C459.098 661.548 460.345 663.248 461.575 665.023L461.284 665.225ZM453.553 655.275C452.125 653.642 450.679 652.091 449.217 650.619L449.469 650.369C450.936 651.847 452.387 653.403 453.819 655.042L453.553 655.275ZM444.653 646.317C443.035 644.892 441.401 643.554 439.751 642.298L439.966 642.016C441.622 643.278 443.263 644.621 444.887 646.051L444.653 646.317ZM434.576 638.645C432.789 637.48 430.987 636.4 429.174 635.4L429.346 635.089C431.166 636.094 432.975 637.178 434.769 638.348L434.576 638.645ZM423.547 632.556C421.606 631.662 419.655 630.848 417.697 630.108L417.822 629.777C419.788 630.52 421.746 631.336 423.695 632.234L423.547 632.556ZM411.709 628.068C409.679 627.45 407.645 626.9 405.61 626.411L405.693 626.066C407.734 626.557 409.775 627.109 411.813 627.73L411.709 628.068ZM399.428 625.102C397.339 624.716 395.254 624.386 393.176 624.1L393.224 623.75C395.307 624.035 397.398 624.367 399.492 624.754L399.428 625.102ZM386.881 623.363C384.762 623.155 382.656 622.984 380.565 622.841L380.589 622.488C382.683 622.631 384.793 622.802 386.915 623.011L386.881 623.363ZM374.238 622.482C372.106 622.382 369.995 622.301 367.91 622.227L367.922 621.873C370.008 621.947 372.121 622.028 374.255 622.128L374.238 622.482ZM361.582 622.01C359.437 621.935 357.327 621.856 355.256 621.758L355.273 621.404C357.341 621.502 359.45 621.581 361.594 621.656L361.582 622.01ZM348.929 621.378C346.767 621.213 344.66 621.01 342.613 620.751L342.657 620.4C344.697 620.658 346.799 620.86 348.956 621.024L348.929 621.378ZM336.343 619.723C334.203 619.278 332.149 618.739 330.19 618.082L330.303 617.746C332.246 618.399 334.287 618.934 336.415 619.376L336.343 619.723ZM324.339 615.585C322.458 614.578 320.701 613.404 319.08 612.03L319.309 611.76C320.91 613.116 322.646 614.277 324.506 615.273L324.339 615.585ZM314.733 607.405C313.518 605.782 312.426 603.973 311.467 601.954L311.787 601.802C312.737 603.801 313.816 605.59 315.016 607.193L314.733 607.405ZM309.218 596.03C308.653 594.128 308.174 592.083 307.788 589.884L308.137 589.822C308.521 592.009 308.996 594.041 309.558 595.929L309.218 596.03ZM306.973 583.601C306.793 581.565 306.678 579.42 306.629 577.158L306.983 577.151C307.032 579.405 307.147 581.543 307.326 583.569L306.973 583.601ZM306.657 570.921C306.714 568.892 306.818 566.781 306.97 564.584L307.323 564.608C307.172 566.8 307.068 568.907 307.011 570.931L306.657 570.921ZM307.518 558.234C307.724 556.218 307.967 554.137 308.245 551.989L308.597 552.035C308.318 554.18 308.076 556.258 307.87 558.27L307.518 558.234ZM309.14 545.686C309.306 544.605 309.48 543.508 309.663 542.395L310.013 542.453C309.83 543.564 309.656 544.66 309.49 545.74L309.14 545.686ZM309.488 542.366C309.52 542.173 309.702 542.043 309.895 542.074C310.088 542.106 310.219 542.288 310.187 542.481L309.488 542.366ZM477.378 696.125C476.964 695.1 476.547 694.089 476.126 693.093L476.778 692.817C477.201 693.817 477.62 694.831 478.035 695.86L477.378 696.125ZM473.555 687.284C472.659 685.35 471.748 683.474 470.822 681.655L471.453 681.334C472.383 683.161 473.298 685.044 474.198 686.986L473.555 687.284ZM467.813 676.028C466.767 674.167 465.705 672.372 464.628 670.64L465.229 670.266C466.312 672.007 467.379 673.811 468.43 675.681L467.813 676.028ZM461.139 665.326C459.914 663.559 458.672 661.866 457.414 660.245L457.974 659.811C459.24 661.442 460.489 663.145 461.721 664.922L461.139 665.326ZM453.419 655.392C451.994 653.761 450.551 652.213 449.092 650.743L449.594 650.244C451.064 651.725 452.518 653.284 453.953 654.926L453.419 655.392ZM444.536 646.45C442.921 645.028 441.29 643.693 439.644 642.439L440.073 641.875C441.733 643.139 443.377 644.485 445.004 645.918L444.536 646.45ZM434.479 638.793C432.696 637.631 430.898 636.553 429.089 635.555L429.431 634.934C431.255 635.941 433.068 637.028 434.866 638.2L434.479 638.793ZM423.473 632.717C421.536 631.824 419.588 631.012 417.634 630.274L417.885 629.611C419.854 630.356 421.817 631.174 423.769 632.074L423.473 632.717ZM411.658 628.238C409.631 627.62 407.6 627.071 405.569 626.583L405.734 625.894C407.778 626.386 409.823 626.938 411.864 627.56L411.658 628.238ZM399.395 625.276C397.31 624.891 395.228 624.561 393.152 624.276L393.248 623.574C395.334 623.86 397.427 624.192 399.524 624.579L399.395 625.276ZM386.863 623.539C384.747 623.331 382.642 623.161 380.553 623.018L380.601 622.311C382.696 622.454 384.808 622.625 386.933 622.834L386.863 623.539ZM374.23 622.659C372.099 622.559 369.988 622.477 367.903 622.404L367.928 621.696C370.015 621.77 372.128 621.851 374.263 621.951L374.23 622.659ZM361.576 622.187C359.431 622.112 357.319 622.033 355.248 621.935L355.281 621.227C357.349 621.325 359.457 621.404 361.6 621.479L361.576 622.187ZM348.916 621.554C346.752 621.39 344.641 621.187 342.59 620.927L342.679 620.224C344.716 620.482 346.815 620.684 348.969 620.848L348.916 621.554ZM336.307 619.896C334.161 619.45 332.1 618.91 330.134 618.25L330.359 617.578C332.295 618.228 334.328 618.762 336.451 619.203L336.307 619.896ZM324.255 615.741C322.365 614.729 320.597 613.547 318.966 612.165L319.424 611.625C321.014 612.972 322.74 614.126 324.59 615.116L324.255 615.741ZM314.591 607.511C313.369 605.879 312.271 604.059 311.307 602.03L311.947 601.726C312.892 603.715 313.966 605.494 315.158 607.087L314.591 607.511ZM309.049 596.081C308.481 594.171 308.001 592.119 307.613 589.914L308.311 589.792C308.694 591.972 309.168 593.998 309.728 595.879L309.049 596.081ZM306.797 583.616C306.617 581.577 306.501 579.427 306.452 577.162L307.16 577.147C307.209 579.398 307.324 581.531 307.502 583.554L306.797 583.616ZM306.48 570.916C306.537 568.884 306.641 566.771 306.793 564.572L307.5 564.62C307.349 566.81 307.245 568.914 307.188 570.936L306.48 570.916ZM307.342 558.216C307.548 556.198 307.791 554.116 308.07 551.966L308.772 552.058C308.494 554.201 308.252 556.277 308.046 558.288L307.342 558.216ZM308.965 545.659C309.131 544.577 309.305 543.48 309.488 542.366L310.187 542.481C310.005 543.592 309.831 544.687 309.665 545.767L308.965 545.659Z" fill="white"/>
<path opacity="0.2" d="M72.9951 0.466036C72.9757 0.347521 72.8638 0.267219 72.7453 0.286696C72.6268 0.30619 72.5465 0.418046 72.566 0.53656L72.9951 0.466036ZM-133.174 189.178C-132.666 187.918 -132.153 186.676 -131.635 185.451L-132.036 185.281C-132.554 186.508 -133.068 187.753 -133.577 189.015L-133.174 189.178ZM-128.475 178.31C-127.374 175.933 -126.253 173.627 -125.115 171.391L-125.503 171.193C-126.643 173.434 -127.766 175.745 -128.87 178.128L-128.475 178.31ZM-121.416 164.471C-120.13 162.183 -118.824 159.976 -117.499 157.847L-117.868 157.617C-119.197 159.752 -120.506 161.965 -121.795 164.258L-121.416 164.471ZM-113.208 151.311C-111.702 149.138 -110.175 147.057 -108.627 145.063L-108.971 144.796C-110.523 146.796 -112.055 148.884 -113.566 151.063L-113.208 151.311ZM-103.713 139.092C-101.96 137.086 -100.184 135.182 -98.3891 133.374L-98.6978 133.067C-100.5 134.882 -102.281 136.793 -104.041 138.806L-103.713 139.092ZM-92.7838 128.091C-90.7972 126.341 -88.7898 124.698 -86.7642 123.155L-87.0278 122.809C-89.0615 124.358 -91.077 126.008 -93.0713 127.764L-92.7838 128.091ZM-80.4081 118.669C-78.2134 117.238 -76.0012 115.912 -73.7748 114.683L-73.985 114.302C-76.2206 115.536 -78.4419 116.868 -80.6457 118.305L-80.4081 118.669ZM-66.864 111.191C-64.4801 110.093 -62.084 109.094 -59.6796 108.185L-59.8334 107.778C-62.2471 108.691 -64.6526 109.693 -67.046 110.796L-66.864 111.191ZM-52.3262 105.68C-49.8327 104.92 -47.3345 104.245 -44.8357 103.644L-44.9374 103.221C-47.4441 103.824 -49.9507 104.501 -52.453 105.264L-52.3262 105.68ZM-37.2432 102.037C-34.6785 101.563 -32.1179 101.157 -29.5659 100.807L-29.625 100.376C-32.183 100.727 -34.7503 101.134 -37.3222 101.609L-37.2432 102.037ZM-21.8346 99.9014C-19.2332 99.6453 -16.646 99.436 -14.0779 99.2609L-14.1075 98.8269C-16.6792 99.0023 -19.2709 99.212 -21.8773 99.4685L-21.8346 99.9014ZM-6.30881 98.8195C-3.68991 98.6964 -1.09734 98.5965 1.46352 98.5057L1.44811 98.071C-1.11357 98.1619 -3.70799 98.2619 -6.32923 98.385L-6.30881 98.8195ZM9.23447 98.24C11.8682 98.1481 14.4602 98.0503 17.0031 97.93L16.9826 97.4956C14.4423 97.6157 11.8524 97.7134 9.2193 97.8053L9.23447 98.24ZM24.7733 97.463C27.4278 97.2612 30.0164 97.0121 32.5302 96.694L32.4756 96.2625C29.9705 96.5795 27.3893 96.8279 24.7403 97.0293L24.7733 97.463ZM40.2301 95.431C42.8578 94.8848 45.3807 94.2233 47.7863 93.4159L47.6479 93.0036C45.2612 93.8046 42.7552 94.4619 40.1416 95.0052L40.2301 95.431ZM54.972 90.349C57.2815 89.1129 59.4394 87.6703 61.4298 85.9833L61.1486 85.6515C59.1834 87.3171 57.0513 88.7427 54.7667 89.9655L54.972 90.349ZM66.7689 80.3036C68.2608 78.311 69.6016 76.0889 70.7801 73.6098L70.3873 73.4231C69.2205 75.8775 67.8945 78.0746 66.4207 80.0429L66.7689 80.3036ZM73.5413 66.3345C74.236 63.9981 74.8234 61.4864 75.2982 58.7857L74.8699 58.7104C74.3976 61.3962 73.8139 63.8916 73.1244 66.2106L73.5413 66.3345ZM76.2989 51.0697C76.5194 48.5703 76.6611 45.9357 76.721 43.1583L76.2861 43.1489C76.2264 45.9175 76.0852 48.5425 75.8657 51.0315L76.2989 51.0697ZM76.6873 35.4979C76.6165 33.0061 76.4888 30.4133 76.3025 27.7155L75.8686 27.7455C76.0545 30.4378 76.1819 33.0247 76.2525 35.5103L76.6873 35.4979ZM75.6298 19.9177C75.3762 17.4418 75.0787 14.8861 74.7361 12.2483L74.3048 12.3043C74.6469 14.9385 74.944 17.4902 75.1971 19.962L75.6298 19.9177ZM73.6375 4.50757C73.4338 3.17961 73.2197 1.83252 72.9951 0.466036L72.566 0.53656C72.7903 1.90157 73.0041 3.24712 73.2076 4.57352L73.6375 4.50757ZM73.2097 0.430774C73.1708 0.193726 72.9471 0.0331596 72.71 0.0721117C72.473 0.111064 72.3124 0.334793 72.3514 0.571822L73.2097 0.430774ZM-132.972 189.259C-132.465 188 -131.952 186.759 -131.435 185.535L-132.236 185.197C-132.755 186.425 -133.269 187.67 -133.779 188.934L-132.972 189.259ZM-128.278 178.402C-127.177 176.026 -126.058 173.723 -124.922 171.489L-125.697 171.095C-126.839 173.338 -127.962 175.651 -129.067 178.036L-128.278 178.402ZM-121.226 164.578C-119.942 162.293 -118.637 160.088 -117.315 157.962L-118.053 157.502C-119.383 159.64 -120.694 161.855 -121.984 164.152L-121.226 164.578ZM-113.03 151.435C-111.526 149.265 -110 147.187 -108.456 145.196L-109.143 144.663C-110.697 146.666 -112.232 148.757 -113.744 150.939L-113.03 151.435ZM-103.549 139.235C-101.799 137.233 -100.027 135.332 -98.2348 133.527L-98.8521 132.914C-100.657 134.732 -102.442 136.647 -104.204 138.663L-103.549 139.235ZM-92.6401 128.254C-90.6573 126.508 -88.6539 124.868 -86.6324 123.328L-87.1595 122.636C-89.1974 124.188 -91.2168 125.841 -93.215 127.601L-92.6401 128.254ZM-80.2893 118.851C-78.0992 117.423 -75.8915 116.1 -73.6697 114.874L-74.0901 114.112C-76.3303 115.348 -78.5562 116.683 -80.7645 118.123L-80.2893 118.851ZM-66.773 111.389C-64.3939 110.293 -62.0025 109.296 -59.6027 108.388L-59.9104 107.574C-62.3286 108.489 -64.7388 109.494 -67.137 110.599L-66.773 111.389ZM-52.2628 105.888C-49.7737 105.129 -47.2797 104.455 -44.7849 103.856L-44.9882 103.01C-47.4989 103.613 -50.0097 104.292 -52.5165 105.056L-52.2628 105.888ZM-37.2038 102.251C-34.6426 101.778 -32.0853 101.372 -29.5363 101.022L-29.6546 100.161C-32.2156 100.512 -34.7862 100.92 -37.3617 101.395L-37.2038 102.251ZM-21.8133 100.118C-19.2144 99.862 -16.6293 99.6529 -14.0631 99.4778L-14.1223 98.61C-16.6959 98.7855 -19.2897 98.9953 -21.8986 99.2521L-21.8133 100.118ZM-6.29861 99.0367C-3.68087 98.9137 -1.08923 98.8138 1.47122 98.723L1.4404 97.8537C-1.1217 97.9446 -3.71703 98.0446 -6.33943 98.1678L-6.29861 99.0367ZM9.24205 98.4573C11.8761 98.3654 14.4691 98.2676 17.0134 98.1473L16.9723 97.2783C14.4333 97.3984 11.8445 97.4961 9.21172 97.588L9.24205 98.4573ZM24.7897 97.6799C27.447 97.4779 30.0394 97.2284 32.5575 96.9098L32.4483 96.0468C29.9476 96.3632 27.37 96.6113 24.7238 96.8125L24.7897 97.6799ZM40.2744 95.6439C42.909 95.0962 45.4405 94.4326 47.8555 93.6221L47.5787 92.7974C45.2015 93.5953 42.7039 94.2504 40.0973 94.7922L40.2744 95.6439ZM55.0746 90.5408C57.3965 89.2979 59.5674 87.8469 61.5705 86.1492L61.008 85.4856C59.0554 87.1405 56.9362 88.5577 54.6641 89.7738L55.0746 90.5408ZM66.943 80.4339C68.444 78.4292 69.7921 76.1946 70.9765 73.7032L70.1909 73.3297C69.03 75.7717 67.7113 77.9564 66.2466 79.9126L66.943 80.4339ZM73.7498 66.3965C74.447 64.0514 75.0363 61.5315 75.5124 58.8234L74.6557 58.6727C74.1848 61.351 73.6029 63.8383 72.916 66.1486L73.7498 66.3965ZM76.5156 51.0888C76.7365 48.5843 76.8784 45.9448 76.9384 43.163L76.0687 43.1442C76.0091 45.9084 75.8681 48.5286 75.649 51.0124L76.5156 51.0888ZM76.9047 35.4918C76.8338 32.9968 76.706 30.4011 76.5195 27.7005L75.6516 27.7604C75.8374 30.4501 75.9646 33.034 76.0352 35.5165L76.9047 35.4918ZM75.8462 19.8956C75.5924 17.4176 75.2946 14.86 74.9518 12.2203L74.0892 12.3323C74.431 14.9647 74.7278 17.5144 74.9808 19.9842L75.8462 19.8956ZM73.8524 4.47461C73.6486 3.14584 73.4344 1.79801 73.2097 0.430774L72.3514 0.571822C72.5756 1.93608 72.7893 3.28089 72.9926 4.6065L73.8524 4.47461Z" fill="white"/>
<path opacity="0.2" d="M300.243 350.607C300.123 350.602 300.022 350.696 300.018 350.816C300.013 350.936 300.107 351.037 300.227 351.041L300.243 350.607ZM444.45 590.027C443.315 589.28 442.199 588.531 441.101 587.782L440.855 588.141C441.956 588.892 443.074 589.642 444.21 590.391L444.45 590.027ZM434.726 583.272C432.613 581.722 430.575 580.168 428.608 578.61L428.338 578.951C430.309 580.512 432.352 582.069 434.469 583.623L434.726 583.272ZM422.557 573.615C420.568 571.901 418.663 570.185 416.838 568.465L416.54 568.782C418.37 570.506 420.28 572.227 422.273 573.944L422.557 573.615ZM411.28 562.966C409.448 561.06 407.709 559.151 406.061 557.24L405.732 557.524C407.385 559.441 409.129 561.356 410.966 563.268L411.28 562.966ZM401.18 551.242C399.561 549.127 398.045 547.01 396.628 544.892L396.266 545.134C397.689 547.26 399.21 549.384 400.835 551.507L401.18 551.242ZM392.558 538.353C391.236 536.06 390.022 533.767 388.91 531.476L388.519 531.666C389.635 533.966 390.854 536.268 392.181 538.57L392.558 538.353ZM385.77 524.358C384.801 521.924 383.939 519.493 383.175 517.068L382.76 517.198C383.527 519.634 384.393 522.075 385.366 524.519L385.77 524.358ZM381.119 509.603C380.514 507.049 380.008 504.502 379.592 501.966L379.163 502.036C379.581 504.582 380.088 507.139 380.696 509.703L381.119 509.603ZM378.592 494.262C378.34 491.667 378.172 489.085 378.078 486.517L377.643 486.533C377.738 489.109 377.906 491.7 378.159 494.304L378.592 494.262ZM378.004 478.756C378.047 476.149 378.155 473.558 378.317 470.987L377.882 470.96C377.721 473.537 377.612 476.134 377.569 478.749L378.004 478.756ZM378.958 463.23C379.222 460.629 379.528 458.052 379.864 455.5L379.433 455.443C379.096 457.999 378.789 460.58 378.525 463.186L378.958 463.23ZM380.968 447.797C381.366 445.205 381.78 442.644 382.198 440.116L381.769 440.045C381.351 442.574 380.936 445.137 380.538 447.731L380.968 447.797ZM383.474 432.446C383.905 429.846 384.322 427.286 384.707 424.769L384.277 424.704C383.892 427.218 383.476 429.776 383.045 432.375L383.474 432.446ZM385.786 417.06C386.113 414.418 386.381 411.832 386.567 409.305L386.133 409.273C385.948 411.791 385.681 414.371 385.354 417.007L385.786 417.06ZM386.851 401.507C386.836 398.823 386.686 396.219 386.371 393.702L385.939 393.756C386.252 396.254 386.401 398.84 386.416 401.51L386.851 401.507ZM384.785 386.051C384.03 383.543 383.043 381.142 381.783 378.857L381.402 379.068C382.646 381.323 383.622 383.695 384.369 386.177L384.785 386.051ZM377.272 372.501C375.614 370.644 373.701 368.89 371.504 367.245L371.243 367.593C373.418 369.222 375.309 370.956 376.947 372.79L377.272 372.501ZM364.918 363.099C362.765 361.956 360.419 360.883 357.866 359.884L357.707 360.289C360.247 361.283 362.577 362.349 364.714 363.483L364.918 363.099ZM350.5 357.377C348.094 356.666 345.539 356.006 342.829 355.398L342.733 355.823C345.435 356.429 347.981 357.086 350.377 357.794L350.5 357.377ZM335.313 353.916C332.856 353.493 330.289 353.105 327.608 352.754L327.552 353.185C330.228 353.536 332.789 353.922 335.239 354.345L335.313 353.916ZM319.831 351.871C317.354 351.63 314.79 351.416 312.137 351.23L312.106 351.664C314.756 351.85 317.316 352.063 319.789 352.304L319.831 351.871ZM304.332 350.776C302.989 350.713 301.627 350.657 300.243 350.607L300.227 351.041C301.609 351.091 302.971 351.148 304.311 351.211L304.332 350.776ZM300.251 350.389C300.011 350.381 299.809 350.568 299.8 350.808C299.792 351.048 299.979 351.25 300.219 351.259L300.251 350.389ZM444.569 589.846C443.436 589.099 442.32 588.351 441.223 587.602L440.733 588.32C441.834 589.072 442.953 589.823 444.091 590.572L444.569 589.846ZM434.855 583.097C432.744 581.548 430.707 579.995 428.743 578.439L428.203 579.121C430.176 580.684 432.221 582.243 434.34 583.798L434.855 583.097ZM422.699 573.45C420.713 571.739 418.81 570.024 416.987 568.307L416.391 568.94C418.223 570.667 420.135 572.39 422.131 574.109L422.699 573.45ZM411.437 562.816C409.607 560.912 407.872 559.006 406.226 557.098L405.567 557.666C407.223 559.587 408.969 561.504 410.809 563.419L411.437 562.816ZM401.353 551.11C399.736 548.998 398.223 546.885 396.809 544.771L396.086 545.255C397.511 547.384 399.034 549.513 400.662 551.639L401.353 551.11ZM392.746 538.244C391.427 535.955 390.216 533.667 389.106 531.381L388.323 531.761C389.442 534.066 390.663 536.372 391.993 538.679L392.746 538.244ZM385.972 524.278C385.005 521.848 384.145 519.423 383.382 517.002L382.553 517.264C383.322 519.704 384.189 522.15 385.164 524.599L385.972 524.278ZM381.33 509.553C380.726 507.004 380.222 504.462 379.807 501.93L378.949 502.071C379.367 504.622 379.875 507.184 380.484 509.753L381.33 509.553ZM378.808 494.241C378.557 491.651 378.389 489.073 378.295 486.509L377.426 486.541C377.521 489.121 377.689 491.717 377.942 494.325L378.808 494.241ZM378.221 478.76C378.264 476.156 378.372 473.569 378.534 471.001L377.665 470.947C377.503 473.527 377.395 476.127 377.351 478.746L378.221 478.76ZM379.174 463.252C379.438 460.654 379.744 458.078 380.08 455.528L379.217 455.414C378.881 457.972 378.573 460.556 378.309 463.164L379.174 463.252ZM381.183 447.83C381.58 445.239 381.995 442.679 382.412 440.151L381.554 440.01C381.137 442.539 380.721 445.103 380.323 447.698L381.183 447.83ZM383.689 432.482C384.12 429.881 384.537 427.32 384.922 424.802L384.062 424.671C383.678 427.183 383.261 429.74 382.831 432.339L383.689 432.482ZM386.002 417.087C386.329 414.442 386.598 411.852 386.783 409.321L385.916 409.257C385.731 411.771 385.465 414.347 385.139 416.98L386.002 417.087ZM387.069 401.506C387.053 398.815 386.903 396.202 386.586 393.675L385.723 393.783C386.035 396.271 386.183 398.849 386.199 401.511L387.069 401.506ZM384.994 385.989C384.235 383.467 383.242 381.052 381.974 378.752L381.212 379.173C382.448 381.414 383.418 383.772 384.161 386.239L384.994 385.989ZM377.434 372.356C375.766 370.488 373.842 368.724 371.634 367.071L371.112 367.767C373.277 369.388 375.157 371.113 376.785 372.935L377.434 372.356ZM365.02 362.907C362.859 361.76 360.506 360.684 357.945 359.681L357.628 360.491C360.16 361.483 362.483 362.545 364.612 363.675L365.02 362.907ZM350.562 357.168C348.15 356.456 345.591 355.795 342.876 355.186L342.686 356.035C345.384 356.64 347.924 357.296 350.315 358.003L350.562 357.168ZM335.35 353.702C332.89 353.278 330.32 352.89 327.636 352.539L327.523 353.401C330.197 353.751 332.755 354.137 335.202 354.559L335.35 353.702ZM319.852 351.655C317.373 351.414 314.807 351.2 312.152 351.014L312.091 351.881C314.739 352.067 317.297 352.28 319.768 352.521L319.852 351.655ZM304.342 350.559C302.999 350.496 301.635 350.44 300.251 350.389L300.219 351.259C301.601 351.309 302.961 351.365 304.301 351.428L304.342 350.559Z" fill="white"/>
<g opacity="0.3">
<path d="M333.871 136.39L340.373 145.623L351.544 144.588" stroke="white" stroke-width="0.565232" stroke-linecap="round" stroke-linejoin="round"/>
<path d="M336.169 154.728L340.378 145.613" stroke="white" stroke-width="0.565232" stroke-linecap="round" stroke-linejoin="round"/>
<path d="M342.966 134.543L336.226 135.039C334.699 135.151 332.924 136.38 332.284 137.767L329.662 143.445C329.021 144.831 329.237 146.979 330.142 148.214L334.13 153.677C334.983 154.839 336.862 155.707 338.3 155.603L345.045 155.096C346.572 154.984 348.346 153.755 348.987 152.369L351.609 146.691C352.249 145.304 352.034 143.156 351.129 141.921L347.141 136.459C346.278 135.292 344.408 134.429 342.966 134.543Z" stroke="white" stroke-width="0.565232" stroke-linecap="round" stroke-linejoin="round"/>
</g>
<g opacity="0.3">
<path d="M37.7776 211.257L32.5041 218.745L23.4441 217.906" stroke="white" stroke-width="0.458425" stroke-linecap="round" stroke-linejoin="round"/>
<path d="M35.914 226.129L32.5002 218.737" stroke="white" stroke-width="0.458425" stroke-linecap="round" stroke-linejoin="round"/>
<path d="M30.4012 209.758L35.8676 210.161C37.106 210.252 38.5452 211.248 39.0646 212.373L41.1911 216.978C41.7105 218.103 41.5359 219.845 40.8019 220.846L37.5674 225.277C36.8754 226.219 35.3512 226.923 34.185 226.839L28.7148 226.428C27.4764 226.337 26.0372 225.341 25.5178 224.216L23.3913 219.611C22.8719 218.486 23.0465 216.744 23.7805 215.743L27.015 211.312C27.7152 210.366 29.2312 209.666 30.4012 209.758Z" stroke="white" stroke-width="0.458425" stroke-linecap="round" stroke-linejoin="round"/>
</g>
<g opacity="0.3">
<path d="M366.534 429.896L359.272 440.21L346.794 439.053" stroke="white" stroke-width="0.63136" stroke-linecap="round" stroke-linejoin="round"/>
<path d="M363.968 450.38L359.266 440.199" stroke="white" stroke-width="0.63136" stroke-linecap="round" stroke-linejoin="round"/>
<path d="M356.375 427.833L363.904 428.388C365.609 428.512 367.592 429.885 368.307 431.434L371.236 437.776C371.951 439.325 371.711 441.724 370.7 443.104L366.245 449.205C365.292 450.504 363.193 451.473 361.587 451.357L354.053 450.791C352.347 450.666 350.365 449.293 349.65 447.744L346.721 441.402C346.006 439.853 346.246 437.454 347.257 436.075L351.712 429.973C352.676 428.67 354.764 427.705 356.375 427.833Z" stroke="white" stroke-width="0.63136" stroke-linecap="round" stroke-linejoin="round"/>
</g>
</svg>
