<svg width="163" height="54" viewBox="0 0 163 54" fill="none" xmlns="http://www.w3.org/2000/svg">
<rect x="1.34961" y="0.5" width="161" height="53" rx="6.5" fill="white"/>
<path d="M110.91 25.9214V29.0142H108.971V31.0425H110.91V37.9342C110.91 40.2875 111.974 41.2288 114.652 41.2288C115.123 41.2288 115.571 41.1728 115.964 41.1056V39.0997C115.627 39.1333 115.414 39.1557 115.045 39.1557C113.846 39.1557 113.319 38.5954 113.319 37.3179V31.0425H115.964V29.0142H113.319V25.9214H110.91Z" fill="black"/>
<path d="M122.786 41.3969C126.35 41.3969 128.535 39.01 128.535 35.0543C128.535 31.121 126.339 28.7229 122.786 28.7229C119.223 28.7229 117.026 31.121 117.026 35.0543C117.026 39.01 119.212 41.3969 122.786 41.3969ZM122.786 39.2566C120.691 39.2566 119.514 37.7213 119.514 35.0543C119.514 32.4097 120.691 30.8632 122.786 30.8632C124.871 30.8632 126.058 32.4097 126.058 35.0543C126.058 37.7101 124.871 39.2566 122.786 39.2566Z" fill="black"/>
<path d="M130.405 41.1616H132.814V33.9561C132.814 32.2416 134.103 31.0873 135.929 31.0873C136.355 31.0873 137.072 31.1658 137.274 31.233V28.8573C137.016 28.7901 136.557 28.7565 136.198 28.7565C134.607 28.7565 133.251 29.6306 132.904 30.8296H132.724V28.9582H130.405V41.1616Z" fill="black"/>
<path d="M143.256 30.7736C145.038 30.7736 146.203 32.0175 146.259 33.9337H140.096C140.23 32.0287 141.474 30.7736 143.256 30.7736ZM146.248 37.867C145.8 38.8195 144.803 39.3462 143.346 39.3462C141.418 39.3462 140.174 37.9903 140.096 35.8499V35.7154H148.713V34.875C148.713 31.0425 146.663 28.7229 143.267 28.7229C139.827 28.7229 137.642 31.1994 137.642 35.0991C137.642 38.9988 139.782 41.3969 143.279 41.3969C146.069 41.3969 148.019 40.0522 148.568 37.867H146.248Z" fill="black"/>
<path d="M95.1098 36.6551C95.2956 39.6517 97.7928 41.5681 101.51 41.5681C105.482 41.5681 107.967 39.5588 107.967 36.3531C107.967 33.8327 106.55 32.4389 103.112 31.6375L101.266 31.1845C99.082 30.6735 98.1993 29.9882 98.1993 28.7919C98.1993 27.282 99.5699 26.2947 101.626 26.2947C103.577 26.2947 104.924 27.2587 105.168 28.8035H107.7C107.549 25.9811 105.064 23.995 101.661 23.995C98.0019 23.995 95.5628 25.9811 95.5628 28.9661C95.5628 31.4284 96.9449 32.8919 99.9764 33.6004L102.137 34.1231C104.355 34.6457 105.331 35.4123 105.331 36.6899C105.331 38.1766 103.798 39.2568 101.707 39.2568C99.4653 39.2568 97.9089 38.2463 97.6883 36.6551H95.1098Z" fill="black"/>
<path d="M70.1519 28.7565C68.4934 28.7565 67.059 29.5857 66.3194 30.9753H66.1401V28.9582H63.8205V45.2182H66.2298V39.3126H66.4203C67.059 40.6013 68.4374 41.3633 70.1743 41.3633C73.256 41.3633 75.217 38.9316 75.217 35.0543C75.217 31.177 73.256 28.7565 70.1519 28.7565ZM69.4683 39.2005C67.4512 39.2005 66.1849 37.6093 66.1849 35.0655C66.1849 32.5105 67.4512 30.9193 69.4795 30.9193C71.519 30.9193 72.7405 32.4769 72.7405 35.0543C72.7405 37.6429 71.519 39.2005 69.4683 39.2005Z" fill="black"/>
<path d="M83.6476 28.7565C81.9891 28.7565 80.5547 29.5857 79.8151 30.9753H79.6358V28.9582H77.3161V45.2182H79.7254V39.3126H79.9159C80.5547 40.6013 81.933 41.3633 83.67 41.3633C86.7516 41.3633 88.7127 38.9316 88.7127 35.0543C88.7127 31.177 86.7516 28.7565 83.6476 28.7565ZM82.964 39.2005C80.9469 39.2005 79.6806 37.6093 79.6806 35.0655C79.6806 32.5105 80.9469 30.9193 82.9752 30.9193C85.0147 30.9193 86.2362 32.4769 86.2362 35.0543C86.2362 37.6429 85.0147 39.2005 82.964 39.2005Z" fill="black"/>
<path d="M59.4978 41.1616H62.2621L56.2108 24.4015H53.4116L47.3604 41.1616H50.0317L51.5765 36.7131H57.9646L59.4978 41.1616ZM54.6776 27.4446H54.8751L57.3026 34.5296H52.2385L54.6776 27.4446Z" fill="black"/>
<path d="M48.9785 11.7598V19.8449H51.8977C54.307 19.8449 55.7021 18.3601 55.7021 15.7771C55.7021 13.2333 54.2958 11.7598 51.8977 11.7598H48.9785ZM50.2336 12.9028H51.7576C53.4329 12.9028 54.4247 13.9673 54.4247 15.7939C54.4247 17.6485 53.4497 18.7019 51.7576 18.7019H50.2336V12.9028Z" fill="black"/>
<path d="M59.975 19.9626C61.7568 19.9626 62.8494 18.7691 62.8494 16.7913C62.8494 14.8246 61.7512 13.6256 59.975 13.6256C58.1933 13.6256 57.0951 14.8246 57.0951 16.7913C57.0951 18.7691 58.1877 19.9626 59.975 19.9626ZM59.975 18.8924C58.9273 18.8924 58.3389 18.1248 58.3389 16.7913C58.3389 15.469 58.9273 14.6957 59.975 14.6957C61.0172 14.6957 61.6111 15.469 61.6111 16.7913C61.6111 18.1192 61.0172 18.8924 59.975 18.8924Z" fill="black"/>
<path d="M72.1538 13.7432H70.9491L69.8621 18.3993H69.7669L68.5118 13.7432H67.3576L66.1025 18.3993H66.0128L64.9202 13.7432H63.6988L65.3797 19.8449H66.618L67.873 15.3513H67.9683L69.229 19.8449H70.4785L72.1538 13.7432Z" fill="black"/>
<path d="M73.5411 19.8449H74.7457V16.2758C74.7457 15.3233 75.3116 14.7294 76.2025 14.7294C77.0934 14.7294 77.5192 15.2168 77.5192 16.1974V19.8449H78.7239V15.8948C78.7239 14.4436 77.9731 13.6256 76.6115 13.6256C75.6926 13.6256 75.0875 14.0346 74.7905 14.7125H74.7009V13.7432H73.5411V19.8449Z" fill="black"/>
<path d="M80.6211 19.8449H81.8257V11.3619H80.6211V19.8449Z" fill="black"/>
<path d="M86.3563 19.9626C88.1381 19.9626 89.2307 18.7691 89.2307 16.7913C89.2307 14.8246 88.1325 13.6256 86.3563 13.6256C84.5746 13.6256 83.4764 14.8246 83.4764 16.7913C83.4764 18.7691 84.5689 19.9626 86.3563 19.9626ZM86.3563 18.8924C85.3085 18.8924 84.7202 18.1248 84.7202 16.7913C84.7202 15.469 85.3085 14.6957 86.3563 14.6957C87.3985 14.6957 87.9924 15.469 87.9924 16.7913C87.9924 18.1192 87.3985 18.8924 86.3563 18.8924Z" fill="black"/>
<path d="M92.82 18.9316C92.1644 18.9316 91.6882 18.6123 91.6882 18.0632C91.6882 17.5253 92.0692 17.2395 92.9096 17.1835L94.4 17.0882V17.5981C94.4 18.3545 93.7276 18.9316 92.82 18.9316ZM92.5118 19.9458C93.313 19.9458 93.9798 19.5984 94.344 18.9877H94.4392V19.8449H95.5991V15.6763C95.5991 14.3876 94.7362 13.6256 93.2066 13.6256C91.8226 13.6256 90.8365 14.2979 90.7132 15.3457H91.8787C92.0131 14.9143 92.4782 14.6677 93.1505 14.6677C93.9742 14.6677 94.4 15.0319 94.4 15.6763V16.203L92.7471 16.2982C91.2959 16.3879 90.4779 17.021 90.4779 18.1192C90.4779 19.2342 91.3352 19.9458 92.5118 19.9458Z" fill="black"/>
<path d="M99.687 19.9458C100.527 19.9458 101.239 19.548 101.603 18.8812H101.699V19.8449H102.853V11.3619H101.648V14.7125H101.558C101.228 14.0402 100.522 13.6424 99.687 13.6424C98.1462 13.6424 97.1545 14.8638 97.1545 16.7913C97.1545 18.7243 98.135 19.9458 99.687 19.9458ZM100.029 14.7238C101.037 14.7238 101.671 15.525 101.671 16.7969C101.671 18.0744 101.043 18.8644 100.029 18.8644C99.0091 18.8644 98.3983 18.0856 98.3983 16.7913C98.3983 15.5082 99.0147 14.7238 100.029 14.7238Z" fill="black"/>
<path d="M110.664 19.9626C112.446 19.9626 113.539 18.7691 113.539 16.7913C113.539 14.8246 112.441 13.6256 110.664 13.6256C108.883 13.6256 107.785 14.8246 107.785 16.7913C107.785 18.7691 108.877 19.9626 110.664 19.9626ZM110.664 18.8924C109.617 18.8924 109.028 18.1248 109.028 16.7913C109.028 15.469 109.617 14.6957 110.664 14.6957C111.707 14.6957 112.301 15.469 112.301 16.7913C112.301 18.1192 111.707 18.8924 110.664 18.8924Z" fill="black"/>
<path d="M115.133 19.8449H116.338V16.2758C116.338 15.3233 116.904 14.7294 117.795 14.7294C118.686 14.7294 119.112 15.2168 119.112 16.1974V19.8449H120.316V15.8948C120.316 14.4436 119.565 13.6256 118.204 13.6256C117.285 13.6256 116.68 14.0346 116.383 14.7125H116.293V13.7432H115.133V19.8449Z" fill="black"/>
<path d="M125.864 12.2248V13.7712H124.895V14.7854H125.864V18.2313C125.864 19.4079 126.397 19.8785 127.736 19.8785C127.971 19.8785 128.195 19.8505 128.391 19.8169V18.814C128.223 18.8308 128.117 18.842 127.932 18.842C127.332 18.842 127.069 18.5618 127.069 17.9231V14.7854H128.391V13.7712H127.069V12.2248H125.864Z" fill="black"/>
<path d="M130.008 19.8449H131.213V16.2814C131.213 15.3569 131.762 14.735 132.748 14.735C133.6 14.735 134.054 15.228 134.054 16.203V19.8449H135.258V15.906C135.258 14.4548 134.457 13.6312 133.157 13.6312C132.238 13.6312 131.594 14.0402 131.297 14.7238H131.202V11.3619H130.008V19.8449Z" fill="black"/>
<path d="M139.604 14.6509C140.495 14.6509 141.078 15.2729 141.106 16.231H138.024C138.091 15.2785 138.713 14.6509 139.604 14.6509ZM141.1 18.1976C140.876 18.6739 140.377 18.9372 139.649 18.9372C138.685 18.9372 138.063 18.2593 138.024 17.1891V17.1219H142.333V16.7016C142.333 14.7854 141.307 13.6256 139.61 13.6256C137.89 13.6256 136.797 14.8638 136.797 16.8137C136.797 18.7635 137.867 19.9626 139.615 19.9626C141.01 19.9626 141.985 19.2902 142.26 18.1976H141.1Z" fill="black"/>
<path d="M34.2879 27.4061C34.3171 25.1367 35.5359 22.9894 37.4693 21.8008C36.2496 20.0589 34.2066 18.9544 32.0812 18.8879C29.8142 18.65 27.6165 20.2444 26.4613 20.2444C25.2837 20.2444 23.5051 18.9115 21.5898 18.951C19.0933 19.0316 16.7659 20.451 15.5514 22.6336C12.9405 27.1539 14.8879 33.7974 17.389 37.4513C18.6403 39.2405 20.1027 41.2391 22.0163 41.1682C23.8888 41.0906 24.5882 39.9742 26.8485 39.9742C29.0878 39.9742 29.7439 41.1682 31.6963 41.1232C33.7056 41.0906 34.9716 39.326 36.179 37.5198C37.0781 36.2449 37.7699 34.8359 38.2289 33.3449C35.8676 32.3462 34.2907 29.9699 34.2879 27.4061Z" fill="black"/>
<path d="M30.6001 16.4849C31.6957 15.1697 32.2355 13.4793 32.1048 11.7726C30.431 11.9484 28.8849 12.7483 27.7745 14.0131C26.6887 15.2488 26.1237 16.9095 26.2305 18.5509C27.9049 18.5682 29.5509 17.7899 30.6001 16.4849Z" fill="black"/>
<rect x="1.34961" y="0.5" width="161" height="53" rx="6.5" stroke="black"/>
</svg>
